<?xml version="1.0" standalone="no"?><svg height="320" width="1440" xmlns="http://www.w3.org/2000/svg" viewBox="0 0 1440 320"><path fill="#7ec6fa" fill-opacity="1" d="M0,32L26.7,48C53.3,64,107,96,160,117.3C213.3,139,267,149,320,138.7C373.3,128,427,96,480,85.3C533.3,75,587,85,640,96C693.3,107,747,117,800,133.3C853.3,149,907,171,960,197.3C1013.3,224,1067,256,1120,266.7C1173.3,277,1227,267,1280,224C1333.3,181,1387,107,1413,69.3L1440,32L1440,320L1413.3,320C1386.7,320,1333,320,1280,320C1226.7,320,1173,320,1120,320C1066.7,320,1013,320,960,320C906.7,320,853,320,800,320C746.7,320,693,320,640,320C586.7,320,533,320,480,320C426.7,320,373,320,320,320C266.7,320,213,320,160,320C106.7,320,53,320,27,320L0,320Z"></path></svg>